# xmcd
#
# Track frame offsets:
#	150
#	5533
#	19303
#	26919
#	37647
#	42037
#	54146
#	69556
#	84440
#	92717
#	99773
#	110510
#	122890
#	132663
#	142723
#	157355
#
# Disc length: 2330 seconds
#
# Revision: 0
# Processed by: cddbd v1.5.2PL0 Copyright (c) Steve Scherf et al.
# Submitted via: EasyCDDAExtractor 12.0.7.1
#
DISCID=c9091810
DTITLE=MF Doom - Live from Planet X
DYEAR=2005
DGENRE=Hip Hop
TTITLE0=Intro
TTITLE1=Change the Beat
TTITLE2=People, Places, and Things
TTITLE3=Deadbent
TTITLE4=Go with the Flow
TTITLE5=Gas Drawls
TTITLE6=Operation Doomsday
TTITLE7=Hey!
TTITLE8=Accordion
TTITLE9=Curls
TTITLE10=Great Day
TTITLE11=Rhymes like Dimes
TTITLE12=I Hear Voices
TTITLE13=My Favorite Ladies
TTITLE14=One Beer
TTITLE15=Fine Print
EXTD=
EXTT0=
EXTT1=
EXTT2=
EXTT3=
EXTT4=
EXTT5=
EXTT6=
EXTT7=
EXTT8=
EXTT9=
EXTT10=
EXTT11=
EXTT12=
EXTT13=
EXTT14=
EXTT15=
PLAYORDER=
